<svg width="20" height="20" viewBox="0 0 20 20" fill="none" xmlns="http://www.w3.org/2000/svg">
<g id="shopping-cart">
<g id="shopping-cart_2">
<g id="Group 388">
<g id="Group 387">
<path id="Path 1166" d="M15.3494 13.8711C14.8973 13.8711 14.4553 14.0052 14.0794 14.2563C13.7035 14.5075 13.4105 14.8645 13.2375 15.2822C13.0645 15.6999 13.0192 16.1596 13.1074 16.603C13.1956 17.0464 13.4133 17.4538 13.733 17.7735C14.0527 18.0931 14.46 18.3108 14.9034 18.399C15.3469 18.4873 15.8065 18.442 16.2242 18.269C16.6419 18.096 16.9989 17.803 17.2501 17.427C17.5013 17.0511 17.6354 16.6092 17.6354 16.157C17.6347 15.551 17.3937 14.9699 16.9651 14.5413C16.5366 14.1127 15.9555 13.8717 15.3494 13.8711ZM15.3494 17.0711C15.1686 17.0711 14.9919 17.0175 14.8416 16.9171C14.6913 16.8166 14.5741 16.6739 14.5049 16.5068C14.4357 16.3398 14.4176 16.156 14.4529 15.9787C14.4882 15.8014 14.5752 15.6385 14.7031 15.5107C14.8309 15.3829 14.9938 15.2958 15.1711 15.2605C15.3484 15.2253 15.5322 15.2434 15.6992 15.3125C15.8662 15.3817 16.009 15.4989 16.1094 15.6492C16.2099 15.7995 16.2635 15.9763 16.2635 16.157C16.2631 16.3993 16.1666 16.6316 15.9953 16.8029C15.824 16.9743 15.5917 17.0707 15.3494 17.0711Z" fill="white" stroke="white" stroke-width="0.493938"/>
</g>
</g>
<g id="Group 390">
<g id="Group 389">
<path id="Path 1167" d="M19.0223 5.0379C18.9582 4.95603 18.8763 4.88982 18.7828 4.84428C18.6893 4.79875 18.5867 4.77508 18.4828 4.77508H5.06615L4.44957 2.19241C4.41373 2.04254 4.32847 1.9091 4.20752 1.8136C4.08658 1.71811 3.937 1.66612 3.7829 1.66602H1.51931C1.33739 1.66602 1.16292 1.73828 1.03428 1.86692C0.905642 1.99556 0.833374 2.17003 0.833374 2.35195C0.833374 2.53387 0.905642 2.70835 1.03428 2.83698C1.16292 2.96562 1.33739 3.03789 1.51931 3.03789H3.24109L5.47 12.3636C5.50584 12.5134 5.59111 12.6469 5.71205 12.7424C5.83299 12.8379 5.98257 12.8898 6.13667 12.89H16.8119C16.9651 12.89 17.1139 12.8387 17.2346 12.7442C17.3553 12.6498 17.4409 12.5177 17.4778 12.3689L19.1464 5.62518C19.1715 5.52428 19.1734 5.419 19.1519 5.31726C19.1304 5.21553 19.0861 5.12001 19.0223 5.0379ZM16.277 11.5181H6.67771L5.3937 6.14619H17.6042L16.277 11.5181Z" fill="white" stroke="white" stroke-width="0.493938"/>
</g>
</g>
<g id="Group 392">
<g id="Group 391">
<path id="Path 1168" d="M7.05206 13.8711C6.59994 13.8711 6.15797 14.0052 5.78205 14.2563C5.40613 14.5075 5.11314 14.8645 4.94012 15.2822C4.76711 15.6999 4.72183 16.1596 4.81004 16.603C4.89824 17.0464 5.11596 17.4538 5.43565 17.7735C5.75534 18.0931 6.16266 18.3108 6.60609 18.399C7.04952 18.4873 7.50914 18.442 7.92685 18.269C8.34455 18.096 8.70156 17.803 8.95275 17.427C9.20393 17.0511 9.338 16.6092 9.338 16.157C9.33739 15.551 9.09635 14.9699 8.66779 14.5413C8.23922 14.1127 7.65814 13.8717 7.05206 13.8711ZM7.05206 17.0711C6.87127 17.0711 6.69454 17.0175 6.54422 16.9171C6.39391 16.8166 6.27675 16.6739 6.20757 16.5068C6.13838 16.3398 6.12028 16.156 6.15555 15.9787C6.19082 15.8014 6.27788 15.6385 6.40571 15.5107C6.53355 15.3829 6.69642 15.2958 6.87373 15.2605C7.05105 15.2253 7.23483 15.2434 7.40185 15.3125C7.56888 15.3817 7.71164 15.4989 7.81208 15.6492C7.91252 15.7995 7.96613 15.9763 7.96613 16.157C7.96572 16.3993 7.86928 16.6316 7.69795 16.8029C7.52662 16.9743 7.29436 17.0707 7.05206 17.0711Z" fill="white" stroke="white" stroke-width="0.493938"/>
</g>
</g>
</g>
</g>
</svg>
